<?xml version="1.0" encoding="utf-8"?>
<!-- Generator: Adobe Illustrator 16.2.1, SVG Export Plug-In . SVG Version: 6.00 Build 0)  -->
<!DOCTYPE svg PUBLIC "-//W3C//DTD SVG 1.1//EN" "http://www.w3.org/Graphics/SVG/1.1/DTD/svg11.dtd" [
        <!ENTITY ns_extend "http://ns.adobe.com/Extensibility/1.0/">
        <!ENTITY ns_ai "http://ns.adobe.com/AdobeIllustrator/10.0/">
        <!ENTITY ns_graphs "http://ns.adobe.com/Graphs/1.0/">
        <!ENTITY ns_vars "http://ns.adobe.com/Variables/1.0/">
        <!ENTITY ns_imrep "http://ns.adobe.com/ImageReplacement/1.0/">
        <!ENTITY ns_sfw "http://ns.adobe.com/SaveForWeb/1.0/">
        <!ENTITY ns_custom "http://ns.adobe.com/GenericCustomNamespace/1.0/">
        <!ENTITY ns_adobe_xpath "http://ns.adobe.com/XPath/1.0/">
        ]>
<svg version="1.1" id="Layer_1"
     xmlns="http://www.w3.org/2000/svg" x="0px" y="0px"
     width="100%"
     height="100%" viewBox="0 0 224.155 113.667" enable-background="new 0 0 224.155 113.667"
     xml:space="preserve">
<metadata>
	<sfw xmlns="&ns_sfw;">
		<slices></slices>
        <sliceSourceBounds y="-38.995" x="-8105" height="108.661" width="16386.125"
                           bottomLeftOrigin="true"></sliceSourceBounds>
	</sfw>
</metadata>
    <g>
	<path fill="#58595B"
          d="M47.469,70.651H36.062L19,20.878h15.245l9.591,31.497l9.792-31.497H64.53L47.469,70.651z"/>
        <path fill="#58595B"
              d="M88.048,16.638H73.409V2h14.639V16.638z M88.048,70.651H73.409V20.878h14.639V70.651z"/>
        <path fill="#8CC640" d="M151.445,21.989c-1.917-0.303-2.726-0.404-3.937-0.404c-3.23,0-5.048,1.414-5.654,4.241
		c3.029,3.534,3.938,5.754,3.938,9.49c0,9.691-8.379,15.445-22.411,15.445c-3.13,0-5.25-0.201-8.077-0.705
		c-1.918,1.109-2.625,2.119-2.625,3.734c0,3.432,1.918,4.139,12.317,4.645c12.417,0.605,13.426,0.707,17.363,1.816
		c5.352,1.615,8.784,6.059,8.784,11.609c0,4.848-2.727,9.391-7.067,12.014c-5.048,3.129-11.206,4.342-21.504,4.342
		c-9.086,0-14.739-0.707-19.182-2.625c-4.139-1.615-6.764-5.148-6.764-8.984c0-4.543,2.726-7.369,8.581-8.986
		c-4.543-2.422-6.359-4.945-6.359-8.883c0-3.23,1.615-6.26,4.239-8.076c1.615-1.111,2.727-1.717,5.755-3.029
		c-6.057-2.727-8.783-6.461-8.783-12.114c0-9.591,8.885-15.649,22.917-15.649c4.946,0,7.672,0.404,13.124,2.121
		c1.11-7.471,3.635-9.692,11.307-9.692c1.515,0,2.323,0.101,4.038,0.404V21.989z M114.698,70.547
		c-0.808-0.201-1.413-0.201-1.615-0.201c-1.919,0.201-3.635,2.121-3.635,4.139c0,3.535,3.938,4.848,14.336,4.848
		c9.692,0,13.629-1.312,13.629-4.746c0-3.23-3.836-3.936-19.282-3.936L114.698,70.547z M114.799,35.214
		c0,4.745,3.028,7.571,7.976,7.571c5.148,0,8.581-3.028,8.581-7.571c0-4.442-3.331-7.369-8.48-7.369
		C117.827,27.845,114.799,30.671,114.799,35.214z"/>
        <path fill="#58595B" d="M201.918,45.915c0,15.244-9.895,25.744-24.129,25.744c-7.47,0-12.922-2.422-17.363-7.572
		c-4.24-5.047-6.157-10.801-6.157-18.676c0-15.245,9.49-25.542,23.521-25.542C192.328,19.868,201.918,30.166,201.918,45.915z
		 M169.716,44.502c0,12.418,2.421,17.564,8.377,17.564c5.754,0,8.382-4.846,8.382-15.85c0-12.114-2.324-16.758-8.281-16.758
		S169.716,33.902,169.716,44.502z"/>
        <path fill="#666666" d="M22.271,94.784v12.271h-1.584V94.784H22.271z"/>
        <path fill="#666666" d="M24.982,100.629c0-0.91-0.019-1.658-0.073-2.387h1.419l0.091,1.459h0.037
		c0.437-0.84,1.456-1.658,2.913-1.658c1.219,0,3.113,0.729,3.113,3.75v5.262h-1.603v-5.078c0-1.422-0.528-2.604-2.04-2.604
		c-1.055,0-1.875,0.746-2.147,1.639c-0.073,0.199-0.109,0.473-0.109,0.746v5.297h-1.602V100.629z"/>
        <path fill="#666666" d="M37.015,95.713v2.529h2.294v1.221h-2.294v4.752c0,1.092,0.31,1.713,1.202,1.713
		c0.419,0,0.728-0.055,0.929-0.111l0.073,1.201c-0.31,0.129-0.801,0.221-1.42,0.221c-0.747,0-1.347-0.238-1.73-0.674
		c-0.455-0.475-0.619-1.258-0.619-2.295v-4.807h-1.365v-1.221h1.365v-2.109L37.015,95.713z"/>
        <path fill="#666666" d="M42.003,102.942c0.037,2.166,1.42,3.059,3.022,3.059c1.147,0,1.839-0.201,2.439-0.455l0.273,1.146
		c-0.564,0.254-1.529,0.547-2.931,0.547c-2.713,0-4.333-1.785-4.333-4.443s1.566-4.752,4.133-4.752c2.876,0,3.641,2.529,3.641,4.15
		c0,0.328-0.037,0.584-0.055,0.748H42.003z M46.7,101.793c0.018-1.02-0.418-2.604-2.221-2.604c-1.62,0-2.331,1.494-2.458,2.604H46.7
		z"/>
        <path fill="#666666" d="M50.23,100.995c0-1.041-0.019-1.932-0.073-2.752h1.402l0.054,1.73h0.073c0.401-1.184,1.366-1.93,2.439-1.93
		c0.183,0,0.31,0.02,0.456,0.055v1.51c-0.164-0.035-0.328-0.053-0.546-0.053c-1.129,0-1.931,0.855-2.148,2.057
		c-0.037,0.219-0.073,0.473-0.073,0.746v4.697H50.23V100.995z"/>
        <path fill="#666666" d="M57.767,102.286h0.037c0.218-0.309,0.527-0.693,0.783-1.002l2.585-3.041h1.931l-3.405,3.623l3.878,5.189
		h-1.948l-3.041-4.225l-0.819,0.912v3.312h-1.583V94.129h1.583V102.286z"/>
        <path fill="#666666" d="M72.694,102.577c0,3.26-2.257,4.68-4.388,4.68c-2.385,0-4.224-1.748-4.224-4.533
		c0-2.949,1.93-4.68,4.37-4.68C70.983,98.043,72.694,99.881,72.694,102.577z M65.703,102.668c0,1.93,1.111,3.385,2.677,3.385
		c1.529,0,2.676-1.438,2.676-3.422c0-1.492-0.747-3.387-2.64-3.387C66.522,99.245,65.703,100.995,65.703,102.668z"/>
        <path fill="#666666" d="M74.714,100.629c0-0.91-0.019-1.658-0.073-2.387h1.402l0.073,1.422h0.054
		c0.492-0.838,1.312-1.621,2.768-1.621c1.202,0,2.112,0.729,2.494,1.766h0.037c0.273-0.492,0.619-0.873,0.983-1.146
		c0.528-0.4,1.11-0.619,1.947-0.619c1.165,0,2.896,0.766,2.896,3.822v5.189h-1.566v-4.988c0-1.691-0.618-2.713-1.911-2.713
		c-0.91,0-1.621,0.674-1.894,1.457c-0.073,0.219-0.128,0.51-0.128,0.801v5.443h-1.565v-5.279c0-1.4-0.619-2.422-1.839-2.422
		c-1.001,0-1.729,0.801-1.984,1.602c-0.091,0.236-0.128,0.51-0.128,0.783v5.316h-1.565V100.629z"/>
        <path fill="#666666" d="M89.896,100.629c0-0.91-0.018-1.658-0.072-2.387h1.402l0.072,1.422h0.055
		c0.492-0.838,1.311-1.621,2.768-1.621c1.201,0,2.111,0.729,2.494,1.766h0.036c0.272-0.492,0.618-0.873,0.983-1.146
		c0.527-0.4,1.11-0.619,1.947-0.619c1.165,0,2.896,0.766,2.896,3.822v5.189h-1.566v-4.988c0-1.691-0.619-2.713-1.911-2.713
		c-0.91,0-1.621,0.674-1.895,1.457c-0.072,0.219-0.127,0.51-0.127,0.801v5.443h-1.565v-5.279c0-1.4-0.618-2.422-1.839-2.422
		c-1.001,0-1.729,0.801-1.984,1.602c-0.091,0.236-0.128,0.51-0.128,0.783v5.316h-1.565V100.629z"/>
        <path fill="#666666" d="M112.451,104.653c0,0.91,0.019,1.711,0.073,2.402h-1.42l-0.091-1.438h-0.037
		c-0.418,0.709-1.347,1.639-2.913,1.639c-1.383,0-3.04-0.766-3.04-3.859v-5.154h1.603v4.881c0,1.674,0.51,2.805,1.966,2.805
		c1.074,0,1.82-0.748,2.112-1.459c0.091-0.234,0.146-0.525,0.146-0.818v-5.408h1.602V104.653z"/>
        <path fill="#666666" d="M115.107,100.629c0-0.91-0.019-1.658-0.072-2.387h1.42l0.091,1.459h0.036
		c0.438-0.84,1.456-1.658,2.913-1.658c1.22,0,3.113,0.729,3.113,3.75v5.262h-1.602v-5.078c0-1.422-0.528-2.604-2.04-2.604
		c-1.056,0-1.875,0.746-2.147,1.639c-0.073,0.199-0.109,0.473-0.109,0.746v5.297h-1.603V100.629z"/>
        <path fill="#666666" d="M130.09,107.055l-0.128-1.109h-0.054c-0.492,0.691-1.438,1.311-2.695,1.311
		c-1.784,0-2.694-1.256-2.694-2.531c0-2.129,1.894-3.295,5.298-3.277v-0.182c0-0.729-0.2-2.039-2.002-2.039
		c-0.819,0-1.676,0.256-2.294,0.654l-0.365-1.055c0.729-0.475,1.784-0.783,2.896-0.783c2.694,0,3.35,1.838,3.35,3.605v3.295
		c0,0.764,0.036,1.51,0.146,2.111H130.09z M129.853,102.557c-1.747-0.035-3.732,0.273-3.732,1.986c0,1.037,0.693,1.529,1.512,1.529
		c1.147,0,1.875-0.729,2.131-1.475c0.054-0.164,0.09-0.346,0.09-0.51V102.557z"/>
        <path fill="#666666" d="M133.985,94.129h1.603v12.926h-1.603V94.129z"/>
        <path fill="#666666" d="M140.21,95.713v2.529h2.295v1.221h-2.295v4.752c0,1.092,0.31,1.713,1.202,1.713
		c0.418,0,0.728-0.055,0.929-0.111l0.072,1.201c-0.31,0.129-0.801,0.221-1.42,0.221c-0.746,0-1.347-0.238-1.729-0.674
		c-0.455-0.475-0.619-1.258-0.619-2.295v-4.807h-1.365v-1.221h1.365v-2.109L140.21,95.713z"/>
        <path fill="#666666" d="M147.946,105.417c0.473,0.311,1.311,0.637,2.111,0.637c1.166,0,1.712-0.582,1.712-1.311
		c0-0.764-0.455-1.184-1.639-1.619c-1.584-0.566-2.33-1.438-2.33-2.494c0-1.42,1.147-2.586,3.04-2.586
		c0.893,0,1.676,0.254,2.167,0.545l-0.401,1.166c-0.346-0.219-0.982-0.51-1.802-0.51c-0.947,0-1.475,0.547-1.475,1.203
		c0,0.727,0.527,1.055,1.675,1.492c1.529,0.582,2.312,1.348,2.312,2.658c0,1.547-1.202,2.641-3.296,2.641
		c-0.965,0-1.856-0.238-2.476-0.602L147.946,105.417z"/>
        <path fill="#666666" d="M156.267,102.942c0.035,2.166,1.419,3.059,3.021,3.059c1.147,0,1.84-0.201,2.44-0.455l0.271,1.146
		c-0.565,0.254-1.528,0.547-2.932,0.547c-2.712,0-4.333-1.785-4.333-4.443s1.566-4.752,4.133-4.752c2.877,0,3.643,2.529,3.643,4.15
		c0,0.328-0.039,0.584-0.055,0.748H156.267z M160.963,101.793c0.02-1.02-0.421-2.604-2.221-2.604c-1.621,0-2.33,1.494-2.46,2.604
		H160.963z"/>
        <path fill="#666666" d="M164.492,94.129h1.604v12.926h-1.604V94.129z"/>
        <path fill="#666666" d="M168.571,105.417c0.472,0.311,1.309,0.637,2.11,0.637c1.167,0,1.713-0.582,1.713-1.311
		c0-0.764-0.455-1.184-1.639-1.619c-1.583-0.566-2.33-1.438-2.33-2.494c0-1.42,1.147-2.586,3.038-2.586
		c0.893,0,1.678,0.254,2.169,0.545l-0.4,1.166c-0.347-0.219-0.983-0.51-1.804-0.51c-0.947,0-1.475,0.547-1.475,1.203
		c0,0.727,0.527,1.055,1.675,1.492c1.528,0.582,2.314,1.348,2.314,2.658c0,1.547-1.203,2.641-3.297,2.641
		c-0.967,0-1.858-0.238-2.476-0.602L168.571,105.417z"/>
        <path fill="#666666" d="M177.583,102.286h0.035c0.22-0.309,0.53-0.693,0.782-1.002l2.586-3.041h1.93l-3.404,3.623l3.879,5.189
		h-1.949l-3.041-4.225l-0.817,0.912v3.312h-1.584V94.129h1.584V102.286z"/>
        <path fill="#666666" d="M189.416,107.055l-0.13-1.109h-0.055c-0.491,0.691-1.438,1.311-2.692,1.311
		c-1.784,0-2.696-1.256-2.696-2.531c0-2.129,1.895-3.295,5.298-3.277v-0.182c0-0.729-0.2-2.039-2.004-2.039
		c-0.817,0-1.674,0.256-2.291,0.654l-0.365-1.055c0.727-0.475,1.784-0.783,2.896-0.783c2.692,0,3.349,1.838,3.349,3.605v3.295
		c0,0.764,0.035,1.51,0.146,2.111H189.416z M189.177,102.557c-1.746-0.035-3.73,0.273-3.73,1.986c0,1.037,0.691,1.529,1.51,1.529
		c1.147,0,1.874-0.729,2.13-1.475c0.055-0.164,0.091-0.346,0.091-0.51V102.557z"/>
        <path fill="#666666" d="M193.311,101.12c0-1.127-0.036-2.037-0.074-2.877h1.438l0.075,1.512h0.035
		c0.656-1.074,1.693-1.711,3.132-1.711c2.13,0,3.733,1.803,3.733,4.479c0,3.168-1.93,4.734-4.005,4.734
		c-1.167,0-2.185-0.512-2.715-1.383h-0.035v4.787h-1.584V101.12z M194.895,103.469c0,0.236,0.035,0.455,0.074,0.654
		c0.291,1.111,1.254,1.877,2.401,1.877c1.693,0,2.676-1.385,2.676-3.404c0-1.768-0.928-3.279-2.621-3.279
		c-1.093,0-2.11,0.785-2.421,1.986c-0.055,0.199-0.109,0.436-0.109,0.654V103.469z"/>
</g>
</svg>
