<?xml version="1.0" encoding="utf-8"?>
<svg version="1.1" id="Layer_1" x="0px" y="0px" width="100%" height="100%"
     viewBox="0 0 222.679 91.749" enable-background="new 0 0 224.155 113.667"
     xmlns="http://www.w3.org/2000/svg">
    <g>
        <path fill="#58595B"
              d="M47.469,70.651H36.062L19,20.878h15.245l9.591,31.497l9.792-31.497H64.53L47.469,70.651z"/>
        <path fill="#58595B"
              d="M88.048,16.638H73.409V2h14.639V16.638z M88.048,70.651H73.409V20.878h14.639V70.651z"/>
        <path fill="#8CC640"
              d="M151.445,21.989c-1.917-0.303-2.726-0.404-3.937-0.404c-3.23,0-5.048,1.414-5.654,4.241 c3.029,3.534,3.938,5.754,3.938,9.49c0,9.691-8.379,15.445-22.411,15.445c-3.13,0-5.25-0.201-8.077-0.705 c-1.918,1.109-2.625,2.119-2.625,3.734c0,3.432,1.918,4.139,12.317,4.645c12.417,0.605,13.426,0.707,17.363,1.816 c5.352,1.615,8.784,6.059,8.784,11.609c0,4.848-2.727,9.391-7.067,12.014c-5.048,3.129-11.206,4.342-21.504,4.342 c-9.086,0-14.739-0.707-19.182-2.625c-4.139-1.615-6.764-5.148-6.764-8.984c0-4.543,2.726-7.369,8.581-8.986 c-4.543-2.422-6.359-4.945-6.359-8.883c0-3.23,1.615-6.26,4.239-8.076c1.615-1.111,2.727-1.717,5.755-3.029 c-6.057-2.727-8.783-6.461-8.783-12.114c0-9.591,8.885-15.649,22.917-15.649c4.946,0,7.672,0.404,13.124,2.121 c1.11-7.471,3.635-9.692,11.307-9.692c1.515,0,2.323,0.101,4.038,0.404V21.989z M114.698,70.547 c-0.808-0.201-1.413-0.201-1.615-0.201c-1.919,0.201-3.635,2.121-3.635,4.139c0,3.535,3.938,4.848,14.336,4.848 c9.692,0,13.629-1.312,13.629-4.746c0-3.23-3.836-3.936-19.282-3.936L114.698,70.547z M114.799,35.214 c0,4.745,3.028,7.571,7.976,7.571c5.148,0,8.581-3.028,8.581-7.571c0-4.442-3.331-7.369-8.48-7.369 C117.827,27.845,114.799,30.671,114.799,35.214z"/>
        <path fill="#58595B"
              d="M201.918,45.915c0,15.244-9.895,25.744-24.129,25.744c-7.47,0-12.922-2.422-17.363-7.572 c-4.24-5.047-6.157-10.801-6.157-18.676c0-15.245,9.49-25.542,23.521-25.542C192.328,19.868,201.918,30.166,201.918,45.915z M169.716,44.502c0,12.418,2.421,17.564,8.377,17.564c5.754,0,8.382-4.846,8.382-15.85c0-12.114-2.324-16.758-8.281-16.758 S169.716,33.902,169.716,44.502z"/>
    </g>
</svg>
